# xmcd
#
# Track frame offsets:
#	150
#	12832
#	27422
#	40917
#	54442
#	68125
#	78752
#	89327
#	103157
#	114657
#	125405
#	137995
#	150685
#	163447
#	174767
#	189220
#	201972
#
# Disc length: 2870 seconds
# Revision: 3
# Processed by: cddbd v1.5.2PL0 Copyright (c) Steve Scherf et al.
# Submitted via: dBpowerAMP V12.0
#
DISCID=e10b3411
DTITLE=The Statler Brothers - The Best of The Statler Brothers Readers Digest Cd 2
DYEAR=1991
DGENRE=Country
TTITLE0=New York City
TTITLE1=Carry Me Back
TTITLE2=Pictures
TTITLE3=You Can't Go Home
TTITLE4=The Movies
TTITLE5=Some I Wrote
TTITLE6=Thank God I've Got You
TTITLE7=Mr Autry
TTITLE8=Silver Medals and Sweet Memories
TTITLE9=Nothing As Original As You
TTITLE10=Here We Are Again
TTITLE11=I Was There
TTITLE12=I'll Go To My Grave Loving You
TTITLE13=Your Picture In The Paper
TTITLE14=I Forgot More Than You'll Ever Know
TTITLE15=Blue Eyes Crying In The Rain
TTITLE16=Faded Love
EXTD=
EXTT0=
EXTT1=
EXTT2=
EXTT3=
EXTT4=
EXTT5=
EXTT6=
EXTT7=
EXTT8=
EXTT9=
EXTT10=
EXTT11=
EXTT12=
EXTT13=
EXTT14=
EXTT15=
EXTT16=
PLAYORDER=
